HIERARCHY
ROOT Hips
{
  OFFSET 0 0 0
  CHANNELS 6 Xposition Yposition Zposition Zrotation Yrotation Xrotation
  JOINT LeftThigh
  {
    OFFSET 8.409438 0 -5.917753
    CHANNELS 3 Zrotation Yrotation Xrotation
    JOINT LeftLeg
    {
      OFFSET 0 0 -42.358652
      CHANNELS 3 Zrotation Yrotation Xrotation
      JOINT LeftFoot
      {
        OFFSET 0 0 -39.357303
        CHANNELS 3 Zrotation Yrotation Xrotation
      }
    }
  }
  JOINT RightThigh
  {
    OFFSET -8.409438 0 -5.917753
    CHANNELS 3 Zrotation Yrotation Xrotation
    JOINT RightLeg
    {
      OFFSET 0 0 -42.358652
      CHANNELS 3 Zrotation Yrotation Xrotation
      JOINT RightFoot
      {
        OFFSET 0 0 -39.357303
        CHANNELS 3 Zrotation Yrotation Xrotation
      }
    }
  }
  JOINT SpineLow
  {
    OFFSET 0 0 4.719101
    CHANNELS 3 Zrotation Yrotation Xrotation
    JOINT SpineMid
    {
      OFFSET 0 0 12.899191
      CHANNELS 3 Zrotation Yrotation Xrotation
      JOINT Chest
      {
        OFFSET 0 0 12.899191
        CHANNELS 3 Zrotation Yrotation Xrotation
        JOINT LeftShoulder
        {
          OFFSET 7.550562 1.41573 9.438202
          CHANNELS 3 Zrotation Yrotation Xrotation
          JOINT LeftArm
          {
            OFFSET 9.155056 0 4.247191
            CHANNELS 3 Zrotation Yrotation Xrotation
            JOINT LeftForearm
            {
              OFFSET 0 0 25.771955
              CHANNELS 3 Zrotation Yrotation Xrotation
              JOINT LeftHand
              {
                OFFSET 0 0 25.197169
                CHANNELS 3 Zrotation Yrotation Xrotation
              }
            }
          }
        }
        JOINT RightShoulder
        {
          OFFSET -7.550562 1.41573 9.438202
          CHANNELS 3 Zrotation Yrotation Xrotation
          JOINT RightArm
          {
            OFFSET -9.155056 0 4.247191
            CHANNELS 3 Zrotation Yrotation Xrotation
            JOINT RightForearm
            {
              OFFSET 0 0 -25.771955
              CHANNELS 3 Zrotation Yrotation Xrotation
              JOINT RightHand
              {
                OFFSET 0 0 -25.197169
                CHANNELS 3 Zrotation Yrotation Xrotation
              }
            }
          }
        }
        JOINT Neck
        {
          OFFSET 0 0 15.101124
          CHANNELS 3 Zrotation Yrotation Xrotation
          JOINT Head
          {
            OFFSET 0 0 11.325843
            CHANNELS 3 Zrotation Yrotation Xrotation
            End Site
            {
              OFFSET 0 0 14.157303
            }
          }
        }
      }
    }
  }
}
MOTION
Frames: 16
Frame Time: 0.0
0.0  101.685394  0.0  9.150041  1.406732  -115.915453  39.383929  -22.294297  -96.777368  45.252581  49.911306  105.129448  -1.776814  -9.412453  1.588693  -20.207384  11.199102  -8.862434  7.033565  8.822065  25.242352  32.463504  -1.044356  8.075727  -2.424456  2.347708  3.736733  -6.265668  6.767351  9.998352  -6.265667  6.767351  9.998352  3.653445  21.174896  23.8529  154.539898  70.12349  -157.365764  -50.741921  -23.593606  75.614869  79.732316  24.125151  -4.198941  40.30681  -2.34956  30.039397  117.341226  57.464034  43.253529  -40.992801  26.025685  -75.090626  59.154551  -26.184801  48.977972  6.576939  1.684539  2.457302  4.925669  1.290049  1.824961  
0.0  101.685394  0.0  9.210982  1.390715  -116.370015  33.613763  -27.244313  -98.163512  47.546873  42.263242  100.738112  -2.319537  -9.458883  2.458991  -19.984047  11.32815  -8.413853  6.556422  9.412768  25.074676  32.70361  -1.060345  8.301738  -2.418605  2.253618  3.761967  -6.260254  6.512484  10.075202  -6.260254  6.512484  10.075202  4.221161  23.438265  25.06444  152.314731  66.236007  -159.141375  -57.5775  -22.531951  82.685783  70.041087  24.252831  -10.096522  39.423152  -3.746834  33.377789  114.692213  56.596644  37.211807  -43.558165  19.239089  -77.870874  54.980475  -17.753425  50.358712  6.792135  2.246096  2.150945  5.085616  1.708749  1.58826  
0.0  101.685394  0.0  9.195258  1.6478  -116.828549  35.006005  -23.481965  -96.751885  42.825119  42.59461  100.779032  -4.526947  -9.516302  0.948634  -20.203061  11.551768  -8.127724  7.035886  9.207724  25.567767  32.549296  -1.006862  8.461878  -2.631588  2.213397  4.012412  -6.822787  6.459651  10.742629  -6.822788  6.459651  10.742629  5.286189  25.708881  24.684061  151.596064  62.83721  -159.075948  -65.684658  -23.673737  87.716867  79.44811  24.990817  -6.183609  39.320191  -4.285494  35.518332  111.091568  58.618577  33.40106  -40.037077  14.965782  -77.771134  53.45126  -0.11473  66.709393  7.584483  2.693881  0.98276  5.682997  2.032982  0.703606  
0.0  101.685394  0.0  9.211511  1.617783  -117.250782  39.042392  -21.363412  -94.68239  42.496443  46.244971  102.853818  -4.961125  -10.745124  -0.165505  -23.132542  14.889064  -11.523781  10.012036  4.936196  28.653759  32.378504  -0.859306  8.600726  -2.81261  2.202643  4.565626  -7.262064  6.517715  12.239943  -7.262064  6.517716  12.239943  5.768062  27.780643  22.84674  153.154572  61.004049  -155.12759  -68.341655  -24.455496  92.964287  85.475364  25.80307  -6.905822  39.184756  -3.965661  35.080082  104.635845  60.428622  28.126834  -36.657121  16.968233  -76.835221  58.145945  -3.060913  77.188789  8.289663  2.947916  -1.355248  6.222451  2.193049  -1.056463  
0.0  101.685394  0.0  8.984678  1.464984  -117.426286  38.764693  -21.568547  -91.919866  39.918519  46.037571  99.61728  -7.04014  -10.669224  0.22256  -23.026299  14.64378  -11.797024  10.354238  4.474043  29.847353  32.148847  -0.514785  8.842681  -3.129801  2.169297  5.409144  -8.045198  6.583326  14.519502  -8.045198  6.583326  14.519502  4.953725  29.603271  17.079472  159.243811  60.22271  -149.392414  -67.648097  -26.209226  95.630206  81.441159  25.428803  -13.384585  40.090961  -2.099729  31.899056  95.189882  59.762769  19.856066  -33.469357  20.565181  -75.124173  59.110538  -6.0219  78.472738  9.209856  3.205368  -4.825752  6.931426  2.332117  -3.667707  
0.0  101.685394  0.0  8.591994  1.517589  -117.520213  37.469748  -22.190621  -90.98886  38.793725  43.865249  98.129212  -9.164032  -10.085887  0.927077  -23.285409  14.269999  -12.305532  11.178817  3.711971  31.140655  31.635063  -0.267053  9.263978  -3.530853  2.081462  5.791358  -9.116394  6.481856  15.532346  -9.116393  6.481856  15.532345  5.909022  30.986104  14.449971  163.550015  60.11119  -146.603777  -66.505138  -26.095217  97.182909  78.916435  24.421127  -15.849602  41.195536  -0.75234  30.740028  88.476583  57.805731  13.391097  -33.536813  27.728217  -77.235867  56.606106  -2.583809  75.838866  10.322213  3.487479  -6.253809  7.775944  2.511163  -4.749481  
0.0  101.685394  0.0  8.102578  1.375675  -117.27339  36.949605  -22.440567  -91.902083  40.010735  43.411143  100.290403  -8.399122  -9.820587  1.200428  -23.832716  13.517206  -13.165774  12.405978  2.75407  32.37203  30.710938  -0.004909  9.764369  -3.779596  1.959891  5.566973  -9.843659  6.177569  14.90692  -9.843658  6.177569  14.906918  8.264186  31.439561  15.403698  166.21694  59.885796  -145.502538  -65.829267  -24.901782  98.415175  82.271627  24.554085  -13.516821  41.902602  -1.165403  32.631839  85.539364  57.326555  11.027028  -33.243687  30.013678  -78.503049  55.047837  -1.108464  72.994001  11.195258  3.492227  -5.257147  8.424638  2.52411  -4.00728  
0.0  101.685394  0.0  7.862577  1.455708  -116.971704  37.230014  -21.851265  -91.685331  40.799757  45.085583  103.43054  -6.295871  -9.447464  0.768211  -24.687497  13.045259  -14.213769  13.434531  1.776608  33.567331  30.036674  0.357886  10.259447  -3.82559  1.832946  5.157301  -10.03497  5.783628  13.798309  -10.034969  5.783628  13.79831  9.634488  31.326645  17.168429  168.710011  59.417852  -144.773786  -64.301958  -24.230395  99.573965  84.187573  25.720543  -11.548736  41.365305  -2.367243  35.151066  86.083555  57.902177  11.539574  -32.639262  26.939401  -78.931734  56.192427  -1.258266  71.569561  11.268574  3.40589  -3.45531  8.468524  2.491817  -2.654662  
0.0  101.685394  0.0  7.702608  1.509499  -116.449457  38.46149  -20.895457  -91.013359  41.662569  48.019756  107.34047  -3.69574  -8.868311  0.120927  -25.357736  12.553602  -15.378741  13.893604  1.099699  34.694156  29.916271  0.62487  10.655583  -3.594182  1.728689  4.809583  -9.455328  5.405163  12.882212  -9.455329  5.405164  12.882212  9.098509  30.445016  18.414447  169.228632  59.744749  -145.078781  -63.58066  -24.984287  100.090165  84.502271  26.381323  -10.364639  39.250579  -3.653368  36.87362  86.865526  58.471058  11.489404  -32.947415  24.013403  -79.659724  58.533187  -1.456491  70.340661  10.301974  3.031681  -1.974162  7.734568  2.241271  -1.531946  
0.0  101.685394  0.0  7.451867  1.548911  -115.956951  38.748297  -19.80602  -89.658161  41.664417  49.921051  110.407128  -1.504938  -8.173  -0.274847  -25.883884  12.087436  -16.291809  13.957717  0.69391  35.630785  30.231109  0.779616  10.977137  -3.250648  1.582211  4.617462  -8.560653  4.917239  12.403218  -8.560653  4.917239  12.403217  7.141815  29.471987  18.551317  168.295537  60.84731  -146.288054  -63.594649  -26.292955  99.967111  84.431443  26.938541  -9.472745  36.281247  -4.408569  37.889317  88.017325  59.098086  11.768502  -33.903431  23.668047  -80.41824  60.121236  -4.20039  69.274303  8.764963  2.745292  -1.073557  6.577311  2.04408  -0.844623  
0.0  101.685394  0.0  7.093791  1.604119  -115.909465  38.360172  -19.392797  -87.739306  40.643572  50.165879  112.660943  -0.846425  -7.173521  -0.804127  -26.205538  11.826041  -16.550986  13.785806  0.386489  36.290988  30.404522  0.84729  11.224424  -3.053449  1.454415  4.690771  -8.039977  4.54207  12.632643  -8.039977  4.54207  12.632644  5.234825  28.544295  17.096618  166.716985  62.171718  -147.853213  -63.75006  -27.926906  99.260091  84.259255  27.30311  -8.607674  34.307454  -4.295272  37.622733  89.588831  60.03247  12.821113  -35.511112  24.238564  -80.837563  61.26379  -7.393198  68.66185  7.630972  2.642793  -1.056311  5.726803  1.969278  -0.825267  
0.0  101.685394  0.0  6.631288  1.731197  -116.080366  38.099817  -20.233844  -85.837852  40.376276  49.917433  115.269256  -1.134471  -5.954173  -1.426735  -26.485616  11.666239  -16.479414  13.597607  -0.014909  36.759109  30.454429  0.889874  11.493637  -3.029085  1.375766  4.658785  -7.990065  4.319964  12.555247  -7.990065  4.319964  12.555247  4.942418  27.691868  16.695332  164.28695  63.66119  -150.100147  -64.170231  -29.514467  98.321329  84.438971  27.542855  -7.439029  33.424846  -4.556103  37.767305  92.224074  61.105627  15.391924  -36.541964  25.183438  -80.245702  60.940326  -8.837032  69.030259  7.153701  2.559992  -0.716589  5.367394  1.911921  -0.567429  
0.0  101.685394  0.0  6.05502  1.999949  -116.188029  37.344633  -21.698464  -83.635472  40.067468  49.420598  117.433535  -1.754989  -4.559945  -2.015135  -26.800793  11.445337  -16.360721  13.351293  -0.435332  37.102565  30.34138  0.953867  11.73025  -3.090848  1.349388  4.486753  -8.175248  4.239147  12.083633  -8.175248  4.239147  12.083633  5.44798  26.988999  17.31672  161.926591  65.294816  -152.637009  -64.614182  -30.895285  97.375006  84.740244  27.800021  -6.008146  32.94054  -5.377184  38.474568  95.75165  61.907836  18.906609  -37.443974  26.492552  -79.192297  59.77985  -9.482555  69.463201  7.004875  2.34547  -0.025803  5.253021  1.759081  -0.046256  
0.0  101.685394  0.0  5.396753  2.399574  -116.107983  35.924836  -23.009881  -80.831689  38.909457  48.754883  118.792726  -2.447739  -3.089499  -2.66133  -27.089637  11.102532  -16.288001  13.002653  -0.745693  37.299956  30.310466  0.955647  11.922082  -3.286818  1.325377  4.204862  -8.733288  4.172856  11.302686  -8.733288  4.172856  11.302687  6.699381  26.837223  18.558079  160.978697  66.860406  -154.166559  -64.41682  -32.104344  96.304391  84.863878  28.07467  -4.631782  33.146661  -6.223995  39.551503  99.129745  62.106122  22.384803  -38.748586  27.740845  -78.622702  58.649815  -9.797144  69.09075  7.279083  2.189554  0.880903  5.455504  1.652938  0.634612  
0.0  101.685394  0.0  4.734855  2.978117  -115.80549  34.163672  -24.240231  -77.682817  37.565523  48.150906  119.900599  -3.057626  -1.560035  -3.343496  -27.406895  10.688046  -16.312953  12.631035  -0.945251  37.338156  30.151397  0.931045  12.031567  -3.609974  1.287492  3.896453  -9.641881  4.080176  10.443217  -9.64188  4.080176  10.443217  8.369925  27.063953  19.863477  162.041132  68.008206  -153.612545  -63.423671  -33.174955  95.124014  84.783152  28.165501  -3.469941  34.038228  -6.746953  40.532326  100.878311  61.785579  24.535159  -39.269762  28.285764  -78.620025  57.914244  -9.426459  68.625994  7.889193  2.152559  1.720491  5.910193  1.636966  1.262666  
0.0  101.685394  0.0  4.128989  3.649455  -115.316019  32.100915  -25.761147  -74.388324  36.723189  47.497915  121.092697  -3.66785  -0.045275  -4.037791  -27.757879  10.232399  -16.467079  12.306653  -1.06452  37.281086  29.999073  0.890974  12.121212  -4.019838  1.221415  3.627606  -10.787755  3.920998  9.691672  -10.787755  3.920998  9.691672  10.240346  27.653316  20.752918  164.242962  68.793322  -151.611373  -62.007236  -33.884646  93.989117  84.646049  28.113989  -2.493409  35.50792  -6.718129  41.2762  100.437874  61.523634  24.793594  -38.916577  27.945104  -79.033454  57.787032  -8.520273  68.048762  8.756088  2.271588  2.283559  6.557825  1.736857  1.68029  
